<svg id="icons" enable-background="new 0 0 64 64" height="512" viewBox="0 0 64 64" width="512" xmlns="http://www.w3.org/2000/svg"><g><g><path d="m27.002 21c-2.76 0-5 2.24-5 5v-4c0-2.76 2.24-5 5-5s5 2.24 5 5v4c0-2.76-2.24-5-5-5z" fill="#8cc152"/></g><g><path d="m23.002 13c-4.97 0-9 4.03-9 9v-4c0-4.97 4.03-9 9-9 4.79 0 8.71 3.75 8.98 8.47.02.181.02.351.02.53v4c0-4.97-4.03-9-9-9z" fill="#8cc152"/></g><g><path d="m31.982 17.47c-.27-6.93-5.98-12.47-12.98-12.47-7.18 0-13 5.82-13 13v-4c0-7.18 5.82-13 13-13s13 5.82 13 13v4c0-.18 0-.35-.02-.53z" fill="#8cc152"/></g><g><path d="m32.019 17.47c.271-4.72 4.19-8.47 8.98-8.47 4.97 0 9 4.03 9 9v4c0-4.97-4.03-9-9-9s-9 4.03-9 9v-4c0-.18 0-.35.02-.53z" fill="#8cc152"/></g><g><path d="m44.999 5c-7 0-12.71 5.54-12.98 12.47-.02.181-.02.351-.02.53v-4c0-7.18 5.82-13 13-13s13 5.82 13 13v4c0-7.18-5.82-13-13-13z" fill="#8cc152"/></g><g><path d="m36.999 21c-2.76 0-5 2.24-5 5v-4c0-2.76 2.24-5 5-5s5 2.24 5 5v4c0-2.76-2.24-5-5-5z" fill="#8cc152"/></g><g><path d="m33.501 26 1 16.99h-5l1-16.99z" fill="#965353"/></g><g><path d="m33.501 22v4h-3v-4-3.569l.867-4.431h1.265l.868 4.429z" fill="#a0d468"/></g><g><path d="m42.501 45.99-2 17.01h-17l-2-17.01z" fill="#545c66"/></g><g><path d="m21.501 45.99h-1v-3h9 5 9v3h-1z" fill="#656d78"/></g></g></svg>